<svg xmlns="http://www.w3.org/2000/svg" xmlns:xlink="http://www.w3.org/1999/xlink" xmlns:lucid="lucid" width="389" height="378"><g transform="translate(-180 -38)" lucid:page-tab-id="0_0"><path d="M260 344.33c0-3.3 2.7-6 6-6h228c3.3 0 6 2.7 6 6v51.34c0 3.3-2.7 6-6 6H266c-3.3 0-6-2.7-6-6z" stroke="#000" stroke-opacity="0" fill="#fff" fill-opacity="0"/><use xlink:href="#a" transform="matrix(1,0,0,1,265,343.33333333333337) translate(-54.39999999999989 38.11111111111111)"/><path d="M336.4 70.4l3.7 1.46 3.2 2.47 2.35 3.2 1.52 3.7.5 3.2v50.73l-14.3-3.2-6.72-.5h-6.4l-5.04.25-4.87.5-4.7.74-4.72 1.24-4.7 1.72-4.37 1.97-4.37 2.46-4.04 2.7-3.87 2.97-3.7 3.2-3.36 3.7-3.04 3.93-2.7 3.94-2.34 4.2-2.02 4.42-1.68 4.67-1.35 4.68-1 4.68-.5 4.93-.18 3.2.16 4.93.5 4.9.84 4.7 1.18 4.67 1.68 4.68 2.02 4.43 2.36 4.2 2.7 4.18 3 3.94 3.38 3.45 3.53 3.44 3.87 2.95 4.03 2.7 4.38 2.47 4.37 1.97 4.7 1.72 4.72 1.23 4.7.98 5.05.5 2.86.24h8.93l14.45-1.72 6.57-1.97v51.47l-.84 3.94-1.68 3.7-2.52 2.94-3.37 2.22-3.7 1.48-3.2.24h-17.82l-4.04-.5-3.53-1.47-3.2-2.45-2.52-3.2-1.5-3.7-.52-3.94v-15.5l-18-5.9-6.9-3.46-10.42 10.34-2.68 2.22-3.2 1.48-3.53.73h-3.54l-3.36-.97-3.2-1.72-2.02-1.72-12.44-12.56-2.2-2.7-1.5-3.2-.67-3.46v-3.7l1-3.44 1.7-2.96 1.67-1.97 9.42-9.6-8.08-16.5-3.02-9.13H215.3l-4.03-.5-3.7-1.47-3.2-2.46-2.35-3.2-1.52-3.7-.5-3.94v-17.73l.5-3.94 1.52-3.7 2.35-3.2 3.2-2.46 3.7-1.48 4.04-.5h12.62l6.22-17 4.88-9.1-9.08-9.12-2.2-2.7-1.5-3.2-.67-3.46v-3.7l1-3.2 1.7-3.2 1.67-1.96 12.6-12.57 2.87-2.22 3.2-1.48 3.37-.74h3.53l3.54 1 3.02 1.7 2.02 1.73 9.92 9.85 17.33-7.4 7.9-2.2v-14.8l.5-3.93 1.7-3.7 2.34-3.2 3.2-2.46 3.7-1.47 3.87-.5h17.83zm31.62 196.03l.17-.24v.23zm-43.05-116l5.04.25 5.06.98 4.7 1.23 4.55 2.2 4.38 2.47 3.87 2.96 3.7 3.45 3.2 3.94 2.7 4.18 2.17 4.44 1.68 4.68 1.18 4.68.5 4.92v2.22l-.33 5.17-.84 4.94-1.5 4.68-1.85 4.43-2.53 4.2-3.02 4.17-3.37 3.45-3.87 3.2-4.2 2.7-4.54 2.23-4.54 1.72-4.88 1.23-5.05.5h-2.35l-5.05-.25-4.88-1-4.7-1.46-4.7-1.97-4.22-2.47-4.04-2.95-3.7-3.45-3.18-3.94-2.7-4.2-2.18-4.42-1.68-4.68-1-4.93-.5-4.92v-1.96l.15-4.93.85-4.9 1.52-4.7 2.02-4.67 2.5-4.2 2.87-4.18 3.53-3.44 3.87-3.2 4.2-2.95 4.38-1.97 4.7-1.73 4.88-1.23 5.05-.5h2.2z" stroke="#000" stroke-opacity="0" fill="#1071e5"/><path d="M429.08 257.08l2.6 1.67 1.5 2.76.55 2.5v29.35l3.56 1.66 3.13 2.22 2.74 2.77 2.2 3.3 1.63 3.6 1.1 3.6.27 3.88-.28 3.88-1.1 3.87-1.64 3.6-2.2 3.05-2.73 2.76-3.14 2.22-3.57 1.66-3.83 1.1-3.83.28-3.83-.27-3.83-1.1-3.55-1.67-3.14-2.22-2.73-2.76-2.2-3.05-1.77-3.6-.95-3.87-.28-3.88.28-3.87.95-3.6 2.74-5.25 3.97-4.43 4.93-3.04 1.78-.83v-21.6H360v-.83l13.27-14.4h52.8zm45.7-58.4l4.9.55 4.66 1.94 4.1 2.5 3.42 3.6 2.47 4.42 1.64 4.42.4 4.98v1.66l-.95 4.98-2.05 5-3.15 4.14-4.1 3.32-4.65 2.2-3.56 1.12-3.95.28-3.83-.28-3.83-1.1-3.57-1.67-3.15-2.2-2.73-3.06-2.2-3.05-1.63-3.6h-64.84l4.38-15.22h60.46l.54-1.66 2.6-4.43 3.7-3.88 4.37-2.77 4.93-1.67 5.2-.55zm-.15-123.73l4.92.55 4.65 1.66 4.24 2.5 3.42 3.6 2.74 4.14 1.64 4.7.55 5-.15 3.04-1.37 4.98-2.32 4.7-3.42 3.88-4.1 3.04-4.8 1.94v51.2l-.4 2.78-1.64 2.5-2.47 1.93-3.14.54h-79.2l-3.16-15.22h74.7v-44.84l-3.3-1.67-4.1-3.58-3.15-4.43-2.06-5.27-.68-5.26v-.28l.68-5 1.64-4.7 2.6-4.15 3.56-3.6 4.24-2.76 4.65-1.4 4.93-.55zm-58-14.67l3.7 1.1 3.55 1.66 3.28 1.94 2.74 2.77 2.2 3.32 1.77 3.6.95 3.6.4 3.87-.26 3.88-.96 3.87-2.73 4.98-3.83 4.43-4.93 3.33-1.77.55v25.47l-.68 3.04-1.78 2.48-2.6 1.66-2.6.28h-33.92l-11.08-15.22h37.34v-17.44l-3.54-1.66-3.15-2.22L396 96.8l-2.33-3.03-1.64-3.6-1.1-3.87-.4-3.88.4-3.87.97-3.6 1.64-3.6 2.2-3.32 2.74-2.77 3.14-2.22 3.56-1.66 3.83-1.1 3.83-.28z" stroke="#000" stroke-opacity="0" fill="#fcce14"/><defs><path fill="#1071e5" d="M52 0v-580h131V0H52zm0-770h131v132H52v-132" id="b"/><path fill="#1071e5" d="M189-580h313c76 0 138 62 138 138v304C640-62 578 0 502 0H189C113 0 51-62 51-138v-304c0-76 62-138 138-138zm313 131H189c-4 0-7 3-7 7v304c0 4 3 7 7 7h313c4 0 7-3 7-7v-304c0-4-3-7-7-7" id="c"/><path fill="#1071e5" d="M410-449H184v311c0 4 3 7 7 7h219V0H191C114 0 53-62 53-138v-632h131v190h226v131" id="d"/><path fill="#282c33" d="M468-361v131H59v-131h409" id="e"/><path fill="#fcce14" d="M503-580c76 0 138 62 138 138V0H190C114 0 52-62 52-138v-218h458v-86c0-4-3-7-7-7H52v-131h451zm7 449v-93H183v86c0 4 3 7 7 7h320" id="f"/><path fill="#fcce14" d="M511-580h131v442C642-62 580 0 504 0H191C114 0 53-62 53-138v-442h131v442c0 4 3 7 7 7h313c4 0 7-3 7-7v-442" id="g"/><path fill="#fcce14" d="M410-449H184v311c0 4 3 7 7 7h219V0H191C114 0 53-62 53-138v-632h131v190h226v131" id="h"/><path fill="#fcce14" d="M189-580h313c76 0 138 62 138 138v304C640-62 578 0 502 0H189C113 0 51-62 51-138v-304c0-76 62-138 138-138zm313 131H189c-4 0-7 3-7 7v304c0 4 3 7 7 7h313c4 0 7-3 7-7v-304c0-4-3-7-7-7" id="i"/><path fill="#fcce14" d="M773-580c76 0 138 62 138 138V0H781v-442c0-4-3-7-8-7H555c-4 0-6 3-6 7V0H417v-442c0-4-3-7-6-7H192c-4 0-7 3-7 7V0H54v-580h719" id="j"/><path fill="#fcce14" d="M190-580h322v131H190c-4 0-7 3-7 7V0H52v-442c0-76 62-138 138-138" id="k"/><g id="a"><use transform="matrix(0.044444444444444425,0,0,0.044444444444444425,0,0)" xlink:href="#b"/><use transform="matrix(0.044444444444444425,0,0,0.044444444444444425,10.35555555555555,0)" xlink:href="#c"/><use transform="matrix(0.044444444444444425,0,0,0.044444444444444425,39.999999999999986,0)" xlink:href="#d"/><use transform="matrix(0.044444444444444425,0,0,0.044444444444444425,59.42222222222221,0)" xlink:href="#e"/><use transform="matrix(0.044444444444444425,0,0,0.044444444444444425,82.39999999999998,0)" xlink:href="#f"/><use transform="matrix(0.044444444444444425,0,0,0.044444444444444425,113.24444444444441,0)" xlink:href="#g"/><use transform="matrix(0.044444444444444425,0,0,0.044444444444444425,143.11111111111106,0)" xlink:href="#h"/><use transform="matrix(0.044444444444444425,0,0,0.044444444444444425,162.53333333333327,0)" xlink:href="#i"/><use transform="matrix(0.044444444444444425,0,0,0.044444444444444425,193.2888888888888,0)" xlink:href="#j"/><use transform="matrix(0.044444444444444425,0,0,0.044444444444444425,234.97777777777767,0)" xlink:href="#f"/><use transform="matrix(0.044444444444444425,0,0,0.044444444444444425,265.8222222222221,0)" xlink:href="#h"/><use transform="matrix(0.044444444444444425,0,0,0.044444444444444425,285.2444444444443,0)" xlink:href="#i"/><use transform="matrix(0.044444444444444425,0,0,0.044444444444444425,315.33333333333314,0)" xlink:href="#k"/></g></defs></g></svg>